# xmcd
#
# Track frame offsets: 
#        150
#        12649
#        24840
#        35441
#        48735
#        61146
#        74641
#        85696
#        97517
#        109239
#        123006
#        133542
#        146508
#        158604
#        170005
#        180159
#
# Disc length: 2519 seconds
#
# Revision: 0
# Processed by: cddbd v1.5.2PL0 Copyright (c) Steve Scherf et al.
# Submitted via: ExactAudioCopyFreeDBPlugin 1.0
#
DISCID=c609d510
DTITLE=Various Artist - Golden Age of Country ''Crazy Arms'' - CD01
DYEAR=1900
DGENRE=Country
TTITLE0=I Walk the Line - Johnny Cash
TTITLE1=Stand By Your Man - Tammy Wynette
TTITLE2=He'll Have to Go - Jim Reeves
TTITLE3=Please Help Me, I'm Falling! - Hank Lockley
TTITLE4=Crazy - Patsy Cline
TTITLE5=Wolverton Mountain - Claude King
TTITLE6=King of the Road - Roger Miller
TTITLE7=Sixteen Tons - Tennessee Ernie Ford
TTITLE8=She Thinks I Still Care - George Jones
TTITLE9=Tennessee Waltz - Patti Page
TTITLE10=Walk On By - Leroy Van Dyke
TTITLE11=The Three Bells - The Browns
TTITLE12=Galveston - Glen Campbell
TTITLE13=Oh Lonesome Me - Don Gibson
TTITLE14=It's Only Make Believe - Conway Twitty
TTITLE15=That's All Right Mama - Elvis Presley
EXTD=
EXTT0=
EXTT1=
EXTT2=
EXTT3=
EXTT4=
EXTT5=
EXTT6=
EXTT7=
EXTT8=
EXTT9=
EXTT10=
EXTT11=
EXTT12=
EXTT13=
EXTT14=
EXTT15=
PLAYORDER=
